<?xml version="1.0" standalone="no"?>
<!DOCTYPE svg PUBLIC "-//W3C//DTD SVG 20010904//EN"
 "http://www.w3.org/TR/2001/REC-SVG-20010904/DTD/svg10.dtd">
<svg version="1.0" xmlns="http://www.w3.org/2000/svg"
 width="960.000000pt" height="960.000000pt" viewBox="0 0 960.000000 960.000000"
 preserveAspectRatio="xMidYMid meet">
<metadata>
Created by potrace 1.16, written by Peter Selinger 2001-2019
</metadata>
<g transform="translate(0.000000,960.000000) scale(0.100000,-0.100000)"
fill="#333333" stroke="none">
<path d="M4070 6254 c-496 -43 -877 -119 -1575 -314 -378 -106 -803 -239
-1175 -369 -135 -47 -135 -47 -195 -35 -33 7 -70 13 -83 14 -22 0 -23 -2 -16
-47 8 -59 -3 -52 -16 8 l-9 44 4 -49 5 -48 -48 6 c-150 20 -161 13 -14 -10 77
-11 79 -12 22 -8 -36 3 -80 7 -98 11 -31 5 -32 4 -33 -33 l-2 -39 -7 35 -7 35
-2 -31 -1 -32 -87 -10 -88 -10 90 3 c69 3 81 2 50 -5 -22 -5 -61 -9 -87 -9
-47 -1 -48 -2 -49 -33 l-2 -33 -7 35 -7 35 -2 -32 c-1 -28 -5 -33 -38 -42
-186 -47 -280 -74 -293 -82 -12 -8 -11 -9 5 -4 75 24 329 86 343 83 9 -2 -19
-11 -63 -21 -44 -10 -130 -31 -192 -48 -110 -31 -111 -31 -117 -65 -4 -18 -11
-36 -16 -39 -6 -4 -7 2 -3 12 3 10 -12 -5 -34 -32 -22 -28 -74 -81 -116 -119
-43 -38 -77 -73 -77 -79 0 -5 10 -2 23 9 20 17 20 16 -2 -9 -26 -28 -37 -36
-25 -14 5 8 2 8 -9 -2 -18 -14 -24 -36 -7 -26 7 4 7 -2 0 -19 -5 -15 -7 -159
-5 -356 4 -314 10 -380 34 -365 5 2 15 -3 22 -13 13 -15 12 -16 -3 -3 -10 7
-18 10 -18 5 1 -16 195 -211 227 -227 18 -10 198 -40 459 -76 530 -75 504 -71
479 -61 -11 4 -220 35 -464 69 -244 34 -455 68 -470 76 -14 7 -64 53 -111 102
l-85 88 90 -86 c50 -48 99 -92 111 -98 17 -8 412 -66 859 -127 22 -3 52 -7 68
-10 23 -5 27 -2 28 18 0 22 1 22 9 3 8 -19 9 -18 9 4 1 23 3 24 54 17 28 -3
68 -6 87 -6 32 0 37 -5 68 -60 18 -33 37 -58 41 -55 5 2 15 -3 22 -13 13 -15
12 -16 -4 -3 -25 20 -21 -2 5 -25 13 -12 18 -13 13 -4 -5 9 0 8 13 -4 25 -21
31 -36 7 -16 -8 7 -15 8 -15 3 0 -12 95 -103 154 -148 52 -39 144 -88 186 -99
14 -4 -11 11 -55 32 -85 41 -181 109 -230 163 -16 18 -2 8 33 -22 157 -136
320 -198 520 -199 211 0 387 67 547 210 37 33 47 40 25 16 -19 -20 -60 -56
-90 -79 -72 -54 -82 -64 -42 -41 41 23 202 172 202 186 0 6 -8 5 -17 -3 -15
-11 -14 -10 1 9 21 24 32 29 20 10 -5 -9 -2 -9 9 1 20 16 23 36 5 25 -8 -4
-10 -3 -5 2 5 5 14 9 20 9 5 0 12 6 15 14 3 9 0 11 -8 6 -9 -5 -11 -4 -6 4 4
6 12 9 17 6 5 -3 19 14 31 39 21 44 24 46 65 46 l43 0 0 -39 c0 -36 2 -39 33
-45 17 -3 718 -1 1557 4 839 5 1670 10 1848 10 l323 0 -2 53 -3 52 64 1 65 1
-60 -6 -60 -6 6 -50 6 -50 1 48 2 47 40 0 c39 0 41 -2 70 -60 17 -34 35 -58
40 -55 5 3 12 0 16 -6 4 -8 3 -9 -4 -5 -18 11 -14 -10 5 -25 15 -12 16 -12 8
1 -8 13 -7 13 8 1 18 -15 23 -26 7 -16 -20 12 -9 -7 28 -51 42 -52 167 -156
215 -180 41 -21 27 -8 -43 38 -30 21 -86 70 -125 110 l-70 72 87 -81 c47 -45
111 -96 142 -113 30 -18 54 -36 53 -42 -1 -6 5 -13 13 -15 13 -4 13 -3 0 6
-25 18 4 12 54 -9 109 -49 302 -63 443 -34 100 20 185 55 269 110 49 31 59 35
34 14 -45 -39 -179 -104 -260 -127 -49 -13 -101 -18 -215 -17 -136 0 -157 2
-225 26 -86 30 -108 30 -28 0 209 -78 477 -49 681 75 62 37 227 187 227 206 0
5 -8 3 -17 -4 -15 -11 -14 -10 1 9 21 24 32 29 20 10 -5 -9 -2 -9 9 1 19 15
23 36 5 25 -7 -4 -8 -3 -4 5 4 6 11 9 16 6 5 -3 14 3 19 14 14 26 14 34 -1 25
-7 -4 -8 -3 -4 5 4 6 12 9 17 5 5 -3 16 10 24 30 18 43 19 49 3 41 -7 -4 -2 3
11 15 13 11 31 18 38 15 8 -3 27 -6 41 -7 15 -1 2 -4 -28 -8 -55 -7 -55 -7
-11 -8 l43 -2 -4 -60 c-5 -75 5 -68 13 8 l6 57 2 -64 1 -64 168 6 c338 12 696
78 912 167 83 34 101 38 50 10 -19 -11 -30 -19 -25 -19 21 0 59 27 61 45 2 10
-2 26 -8 37 -7 14 -7 17 1 13 18 -11 13 10 -6 25 -15 12 -16 12 -8 -1 8 -13 7
-13 -8 -1 -19 15 -23 26 -6 15 7 -4 10 -1 7 7 -3 8 -10 14 -16 14 -5 0 -14 4
-19 9 -5 5 -3 6 5 2 8 -5 12 0 12 15 0 13 4 84 10 158 5 75 11 173 14 218 l4
83 -80 80 c-44 45 -113 104 -152 131 -77 55 -200 129 -213 129 -4 0 32 -24 80
-52 127 -77 193 -128 277 -215 l75 -77 -90 85 c-50 47 -126 109 -169 139 -101
68 -279 152 -381 182 -59 16 -93 33 -130 64 -157 129 -325 209 -465 220 -36 3
-108 16 -160 29 -136 34 -280 60 -560 99 -271 39 -763 96 -822 96 -24 0 -58
-11 -92 -30 -34 -20 -60 -28 -71 -24 -13 5 -16 4 -11 -5 6 -9 0 -10 -21 -6
-19 5 -24 4 -14 -3 24 -17 -74 -29 -226 -27 -78 0 -145 4 -149 7 -3 4 5 4 18
1 l23 -6 -25 22 -25 22 28 -17 c24 -14 47 -16 160 -11 87 4 156 12 202 26 38
11 73 17 77 15 4 -3 8 -1 8 3 0 5 19 18 42 28 40 17 52 18 186 6 79 -7 145
-11 148 -8 9 8 -267 29 -308 23 -48 -7 3 -30 -933 426 -220 108 -433 210 -473
227 -67 30 -74 31 -95 16 -12 -8 -21 -18 -19 -22 1 -4 -5 -8 -15 -9 -14 -2
-12 3 9 21 15 12 24 26 20 31 -4 4 -2 5 3 1 6 -3 17 -1 25 4 11 7 8 8 -10 5
-14 -1 -49 5 -78 15 -89 31 -259 69 -396 91 -101 15 -192 20 -396 23 -146 1
-285 1 -310 -1z m547 -245 c249 -27 429 -89 678 -232 150 -86 746 -488 739
-498 -8 -14 -101 -6 -116 9 -9 9 -3 9 23 2 44 -13 92 -13 84 0 -3 6 -16 8 -29
4 -12 -3 -35 0 -51 7 -17 7 -33 13 -37 13 -4 1 -13 8 -20 16 -11 12 -11 12 5
1 21 -16 23 1 2 19 -8 7 -15 9 -15 5 0 -4 -33 23 -73 61 -83 79 -165 123 -243
131 -47 5 -59 2 -94 -21 -22 -14 -40 -24 -40 -21 0 2 18 17 40 31 36 24 47 26
101 21 51 -4 58 -3 43 8 -31 21 -117 4 -161 -31 -35 -29 -60 -66 -33 -49 9 5
11 4 6 -4 -4 -6 -12 -9 -17 -5 -10 6 -59 -91 -58 -116 0 -8 9 7 19 34 11 27
24 54 29 59 6 6 -1 -17 -14 -49 -14 -32 -25 -68 -25 -79 l-1 -20 -9 20 c-7 17
-9 17 -9 3 -1 -14 -10 -18 -38 -20 -36 -1 -35 -2 12 -9 36 -5 24 -6 -45 -4
-52 3 -413 14 -802 27 -390 12 -708 25 -708 28 0 3 231 -3 512 -12 282 -10
554 -17 603 -15 50 1 -177 11 -503 21 l-592 20 -51 160 c-58 184 -101 312 -95
278 8 -44 -7 -13 -31 61 -29 93 -28 111 2 27 26 -73 34 -70 9 4 -9 26 -14 49
-11 52 14 15 332 49 542 59 165 8 443 -8 600 -35 140 -24 241 -57 380 -124 96
-46 144 -73 290 -160 25 -15 27 -15 10 -1 -36 30 -203 125 -308 175 -201 96
-359 132 -672 151 -200 12 -450 3 -675 -27 -63 -8 -133 -17 -155 -19 l-40 -5
35 10 c46 12 276 40 415 50 133 10 457 4 592 -11z m-1242 -94 c-5 -2 -63 -15
-128 -30 -65 -15 -117 -29 -114 -31 2 -2 52 7 112 21 59 14 110 24 112 21 5
-4 42 -437 43 -490 0 -18 -7 -19 -137 -13 -76 4 -187 9 -248 11 l-110 5 105
-9 c58 -6 170 -14 250 -18 96 -6 121 -10 73 -11 -75 -1 -537 29 -833 54 -189
16 -252 29 -272 53 -10 12 -10 14 0 8 8 -5 12 -1 12 12 0 26 22 43 115 90 44
23 76 41 70 41 -5 0 -47 -19 -92 -43 -45 -23 -80 -38 -76 -33 12 19 230 117
360 161 247 84 689 206 743 205 14 0 21 -2 15 -4z m5065 -791 c134 -48 342
-173 405 -245 11 -12 -9 1 -45 30 -36 29 -109 79 -163 111 -135 80 -325 148
-341 122 -3 -6 2 -8 13 -5 26 7 193 -51 271 -94 89 -48 174 -106 242 -164 55
-48 83 -64 58 -34 -29 34 -1 11 50 -42 30 -31 47 -51 38 -44 -20 15 -25 2 -6
-17 18 -18 0 -15 -89 13 -42 13 -79 22 -81 20 -6 -5 155 -55 179 -55 13 0 18
4 13 12 -4 7 -3 8 4 4 20 -12 13 -26 -12 -26 -70 0 -336 112 -406 171 -25 21
-24 21 10 0 49 -30 188 -101 197 -101 5 0 -32 22 -82 48 -126 66 -206 123
-301 214 -44 43 -83 76 -86 73 -3 -3 -13 5 -24 17 -10 12 -13 18 -6 14 6 -4
12 -3 12 3 0 5 -6 12 -12 15 -44 19 84 -13 162 -40z m-7930 -59 c118 -13 305
-34 415 -47 110 -12 202 -23 205 -25 16 -13 -156 -81 -236 -93 -44 -6 -177 -7
-369 -2 l-300 7 3 25 c1 13 7 29 13 35 7 7 7 1 0 -18 -6 -16 -11 -30 -11 -33
0 -2 116 -3 258 -2 l257 3 -247 2 c-284 4 -268 -4 -219 100 20 43 26 63 18 67
-20 8 -10 7 213 -19z m5895 -25 c-3 -5 -1 -10 4 -10 6 0 10 -3 9 -7 -1 -5 4
-20 10 -35 6 -14 16 -55 22 -90 13 -70 12 -102 -26 -597 -13 -178 -24 -326
-24 -330 0 -3 -5 1 -10 10 -6 11 0 128 17 335 14 176 27 387 27 469 1 133 -2
156 -22 205 -26 64 -25 60 -11 60 5 0 7 -4 4 -10z m-4075 -300 c105 -30 184
-75 260 -148 36 -34 61 -62 55 -61 -23 3 -27 -2 -14 -18 7 -10 -18 11 -56 46
-93 86 -92 85 -78 77 6 -3 14 -2 18 3 8 13 -123 75 -205 97 -96 26 -246 24
-335 -3 -71 -22 -171 -77 -212 -115 -39 -36 -17 -31 34 8 139 107 323 142 505
95 70 -18 178 -64 178 -76 0 -3 -23 6 -51 20 -128 65 -316 84 -445 44 -90 -28
-128 -48 -208 -109 -36 -28 -66 -47 -66 -44 0 4 -12 -3 -27 -17 -28 -24 -28
-24 1 8 16 18 34 31 40 30 6 -1 10 3 9 10 -4 19 76 81 152 119 136 67 286 78
445 34z m5385 15 c112 -23 226 -86 309 -169 42 -41 47 -47 11 -13 -65 61 -98
78 -49 25 29 -32 29 -31 -13 3 -163 136 -429 167 -636 75 -29 -12 -58 -21 -66
-18 -8 3 -11 0 -7 -6 3 -5 -6 -18 -21 -28 -15 -9 -50 -38 -78 -63 l-50 -45 40
42 c49 52 35 55 -20 5 l-40 -38 35 38 c49 54 159 125 246 159 123 48 223 57
339 33z m1727 -296 c21 -11 38 -22 38 -25 0 -2 -10 0 -21 7 -21 11 -21 11 -3
-15 11 -14 25 -26 32 -26 15 0 16 -46 1 -56 -6 -3 -19 -20 -30 -38 -10 -17
-19 -26 -19 -19 0 6 11 25 25 41 14 17 25 38 25 48 -1 13 -5 9 -14 -11 -7 -17
-20 -36 -29 -44 -10 -7 -17 -20 -17 -27 0 -19 -140 -20 -141 -1 0 9 -2 9 -6 0
-3 -10 -8 -9 -20 2 -11 11 -40 15 -119 15 -57 0 -104 3 -104 8 0 4 19 6 43 5
133 -8 185 -8 174 -1 -7 4 -52 8 -100 8 -85 0 -88 1 -82 21 5 16 4 19 -5 14
-9 -5 -11 -4 -6 4 4 6 11 9 15 7 4 -3 21 8 36 24 39 41 114 63 210 63 71 1 75
1 35 9 -55 10 -149 -5 -202 -31 -23 -11 -34 -13 -28 -5 11 13 81 38 130 48 45
8 143 -5 182 -25z m-4507 -469 c-11 -4 113 -6 275 -5 232 3 275 2 200 -6 -106
-11 -964 0 -915 12 43 10 464 9 440 -1z m-2297 -267 c-11 -12 -24 -20 -28 -18
-4 3 -13 -2 -20 -10 -7 -8 -9 -15 -4 -15 4 0 -5 -14 -21 -30 -19 -20 -32 -27
-39 -20 -15 15 -30 12 -17 -4 9 -11 6 -18 -18 -35 -152 -108 -398 -121 -599
-30 -74 33 -124 67 -117 79 3 5 21 0 40 -11 20 -12 32 -26 28 -32 -4 -7 0 -8
11 -4 9 4 15 3 12 -2 -3 -5 4 -9 17 -9 12 0 53 -10 92 -21 137 -41 343 -21
468 46 28 16 78 53 111 84 37 34 68 55 82 55 l24 0 -22 -23z m5374 -54 c-79
-74 -169 -119 -291 -145 -87 -18 -212 -18 -286 1 -85 21 -215 89 -260 135 -61
63 -49 74 18 18 98 -81 175 -112 373 -147 69 -13 132 -13 74 -1 l-35 7 35 2
c107 4 280 79 371 160 82 74 83 47 1 -30z"/>
<path d="M3400 3700 c-206 -3 208 -3 920 -1 712 2 1297 5 1299 7 6 5 -1762 0
-2219 -6z"/>
</g>
</svg>
